<mxfile host="app.diagrams.net" agent="Mozilla/5.0 (Windows NT 10.0; Win64; x64) AppleWebKit/537.36 (KHTML, like Gecko) Chrome/134.0.0.0 Safari/537.36 OPR/119.0.0.0" version="28.1.2">
  <diagram name="P치gina-1" id="Ot82cezsviqH3JUtWJCO">
    <mxGraphModel dx="2107" dy="528" grid="1" gridSize="10" guides="1" tooltips="1" connect="1" arrows="1" fold="1" page="1" pageScale="1" pageWidth="827" pageHeight="1169" math="0" shadow="0">
      <root>
        <mxCell id="0" />
        <mxCell id="1" parent="0" />
        <mxCell id="TbyI9scAErmBb7r6-o0W-35" style="edgeStyle=orthogonalEdgeStyle;rounded=0;orthogonalLoop=1;jettySize=auto;html=1;exitX=1;exitY=0.5;exitDx=0;exitDy=0;entryX=0;entryY=0.5;entryDx=0;entryDy=0;" parent="1" source="TbyI9scAErmBb7r6-o0W-19" target="TbyI9scAErmBb7r6-o0W-20" edge="1">
          <mxGeometry relative="1" as="geometry" />
        </mxCell>
        <mxCell id="TbyI9scAErmBb7r6-o0W-19" value="" style="rounded=0;whiteSpace=wrap;html=1;" parent="1" vertex="1">
          <mxGeometry x="-50" y="280" width="260" height="130" as="geometry" />
        </mxCell>
        <mxCell id="TbyI9scAErmBb7r6-o0W-1" value="develop" style="shape=cylinder3;whiteSpace=wrap;html=1;boundedLbl=1;backgroundOutline=1;size=15;" parent="1" vertex="1">
          <mxGeometry x="85" y="180" width="60" height="80" as="geometry" />
        </mxCell>
        <mxCell id="TbyI9scAErmBb7r6-o0W-40" style="edgeStyle=orthogonalEdgeStyle;rounded=0;orthogonalLoop=1;jettySize=auto;html=1;exitX=0.5;exitY=0;exitDx=0;exitDy=0;exitPerimeter=0;entryX=1;entryY=0.5;entryDx=0;entryDy=0;" parent="1" source="TbyI9scAErmBb7r6-o0W-2" target="TbyI9scAErmBb7r6-o0W-36" edge="1">
          <mxGeometry relative="1" as="geometry" />
        </mxCell>
        <mxCell id="TbyI9scAErmBb7r6-o0W-2" value="bugfix/yucatan-conflictos" style="shape=cylinder3;whiteSpace=wrap;html=1;boundedLbl=1;backgroundOutline=1;size=15;" parent="1" vertex="1">
          <mxGeometry x="230" y="140" width="60" height="80" as="geometry" />
        </mxCell>
        <mxCell id="TbyI9scAErmBb7r6-o0W-3" value="main" style="shape=cylinder3;whiteSpace=wrap;html=1;boundedLbl=1;backgroundOutline=1;size=15;" parent="1" vertex="1">
          <mxGeometry x="360" y="140" width="60" height="80" as="geometry" />
        </mxCell>
        <mxCell id="TbyI9scAErmBb7r6-o0W-4" value="feature/ticket-z" style="shape=cylinder3;whiteSpace=wrap;html=1;boundedLbl=1;backgroundOutline=1;size=15;" parent="1" vertex="1">
          <mxGeometry x="-30" y="290" width="60" height="80" as="geometry" />
        </mxCell>
        <mxCell id="TbyI9scAErmBb7r6-o0W-5" value="feature/ticket-y" style="shape=cylinder3;whiteSpace=wrap;html=1;boundedLbl=1;backgroundOutline=1;size=15;" parent="1" vertex="1">
          <mxGeometry x="40" y="330" width="60" height="80" as="geometry" />
        </mxCell>
        <mxCell id="TbyI9scAErmBb7r6-o0W-6" value="feature/ticket-x" style="shape=cylinder3;whiteSpace=wrap;html=1;boundedLbl=1;backgroundOutline=1;size=15;" parent="1" vertex="1">
          <mxGeometry x="120" y="290" width="60" height="80" as="geometry" />
        </mxCell>
        <mxCell id="TbyI9scAErmBb7r6-o0W-7" value="Dylan" style="shape=umlActor;verticalLabelPosition=bottom;verticalAlign=top;html=1;outlineConnect=0;" parent="1" vertex="1">
          <mxGeometry x="-60" y="370" width="30" height="60" as="geometry" />
        </mxCell>
        <mxCell id="TbyI9scAErmBb7r6-o0W-8" value="Ismael" style="shape=umlActor;verticalLabelPosition=bottom;verticalAlign=top;html=1;outlineConnect=0;" parent="1" vertex="1">
          <mxGeometry x="70" y="420" width="30" height="60" as="geometry" />
        </mxCell>
        <mxCell id="TbyI9scAErmBb7r6-o0W-9" value="Ernesto" style="shape=umlActor;verticalLabelPosition=bottom;verticalAlign=top;html=1;outlineConnect=0;" parent="1" vertex="1">
          <mxGeometry x="170" y="370" width="30" height="60" as="geometry" />
        </mxCell>
        <mxCell id="TbyI9scAErmBb7r6-o0W-10" value="&lt;h1 style=&quot;margin-top: 0px;&quot;&gt;bugfix/-Yucatan-Conflictos&lt;/h1&gt;&lt;p&gt;Esta rama ser치 principalmente para arreglar los conflictos de lo que nos est치 saliendo en los cambios de Yucat치n&lt;/p&gt;" style="text;html=1;whiteSpace=wrap;overflow=hidden;rounded=0;" parent="1" vertex="1">
          <mxGeometry x="-405" y="30" width="355" height="120" as="geometry" />
        </mxCell>
        <mxCell id="TbyI9scAErmBb7r6-o0W-11" style="edgeStyle=orthogonalEdgeStyle;rounded=0;orthogonalLoop=1;jettySize=auto;html=1;exitX=0.855;exitY=0;exitDx=0;exitDy=4.35;exitPerimeter=0;entryX=0;entryY=1;entryDx=0;entryDy=-15;entryPerimeter=0;" parent="1" source="TbyI9scAErmBb7r6-o0W-4" target="TbyI9scAErmBb7r6-o0W-1" edge="1">
          <mxGeometry relative="1" as="geometry" />
        </mxCell>
        <mxCell id="TbyI9scAErmBb7r6-o0W-12" style="edgeStyle=orthogonalEdgeStyle;rounded=0;orthogonalLoop=1;jettySize=auto;html=1;exitX=0.5;exitY=0;exitDx=0;exitDy=0;exitPerimeter=0;entryX=0.145;entryY=1;entryDx=0;entryDy=-4.35;entryPerimeter=0;" parent="1" source="TbyI9scAErmBb7r6-o0W-5" target="TbyI9scAErmBb7r6-o0W-1" edge="1">
          <mxGeometry relative="1" as="geometry" />
        </mxCell>
        <mxCell id="TbyI9scAErmBb7r6-o0W-13" style="edgeStyle=orthogonalEdgeStyle;rounded=0;orthogonalLoop=1;jettySize=auto;html=1;exitX=0.5;exitY=0;exitDx=0;exitDy=0;exitPerimeter=0;entryX=0.73;entryY=0.988;entryDx=0;entryDy=0;entryPerimeter=0;" parent="1" source="TbyI9scAErmBb7r6-o0W-6" target="TbyI9scAErmBb7r6-o0W-1" edge="1">
          <mxGeometry relative="1" as="geometry" />
        </mxCell>
        <mxCell id="TbyI9scAErmBb7r6-o0W-33" value="" style="edgeStyle=orthogonalEdgeStyle;rounded=0;orthogonalLoop=1;jettySize=auto;html=1;" parent="1" source="TbyI9scAErmBb7r6-o0W-20" target="TbyI9scAErmBb7r6-o0W-32" edge="1">
          <mxGeometry relative="1" as="geometry">
            <Array as="points">
              <mxPoint x="380" y="430" />
              <mxPoint x="380" y="430" />
            </Array>
          </mxGeometry>
        </mxCell>
        <mxCell id="1MetSyp41Zf-Jcyhe1Pi-1" value="No" style="edgeLabel;html=1;align=center;verticalAlign=middle;resizable=0;points=[];" vertex="1" connectable="0" parent="TbyI9scAErmBb7r6-o0W-33">
          <mxGeometry x="-0.44" y="-1" relative="1" as="geometry">
            <mxPoint as="offset" />
          </mxGeometry>
        </mxCell>
        <mxCell id="TbyI9scAErmBb7r6-o0W-20" value="se aprobaron en develop?" style="rhombus;whiteSpace=wrap;html=1;" parent="1" vertex="1">
          <mxGeometry x="280" y="390" width="80" height="80" as="geometry" />
        </mxCell>
        <mxCell id="TbyI9scAErmBb7r6-o0W-21" style="edgeStyle=orthogonalEdgeStyle;rounded=0;orthogonalLoop=1;jettySize=auto;html=1;exitX=0.5;exitY=0;exitDx=0;exitDy=0;entryX=0.4;entryY=0.978;entryDx=0;entryDy=0;entryPerimeter=0;" parent="1" source="TbyI9scAErmBb7r6-o0W-20" target="TbyI9scAErmBb7r6-o0W-3" edge="1">
          <mxGeometry relative="1" as="geometry" />
        </mxCell>
        <mxCell id="TbyI9scAErmBb7r6-o0W-28" value="NO" style="edgeLabel;html=1;align=center;verticalAlign=middle;resizable=0;points=[];" parent="TbyI9scAErmBb7r6-o0W-21" vertex="1" connectable="0">
          <mxGeometry x="0.6118" y="4" relative="1" as="geometry">
            <mxPoint as="offset" />
          </mxGeometry>
        </mxCell>
        <mxCell id="TbyI9scAErmBb7r6-o0W-22" value="" style="edgeStyle=orthogonalEdgeStyle;rounded=0;orthogonalLoop=1;jettySize=auto;html=1;exitX=0;exitY=0.5;exitDx=0;exitDy=0;entryX=0.5;entryY=1;entryDx=0;entryDy=0;entryPerimeter=0;" parent="1" source="TbyI9scAErmBb7r6-o0W-25" target="TbyI9scAErmBb7r6-o0W-2" edge="1">
          <mxGeometry relative="1" as="geometry">
            <Array as="points">
              <mxPoint x="260" y="290" />
            </Array>
          </mxGeometry>
        </mxCell>
        <mxCell id="TbyI9scAErmBb7r6-o0W-27" value="si" style="edgeLabel;html=1;align=center;verticalAlign=middle;resizable=0;points=[];" parent="TbyI9scAErmBb7r6-o0W-22" vertex="1" connectable="0">
          <mxGeometry x="0.3111" y="2" relative="1" as="geometry">
            <mxPoint as="offset" />
          </mxGeometry>
        </mxCell>
        <mxCell id="TbyI9scAErmBb7r6-o0W-24" value="" style="edgeStyle=orthogonalEdgeStyle;rounded=0;orthogonalLoop=1;jettySize=auto;html=1;exitX=0.5;exitY=0;exitDx=0;exitDy=0;entryX=0.5;entryY=1;entryDx=0;entryDy=0;entryPerimeter=0;" parent="1" source="TbyI9scAErmBb7r6-o0W-20" target="TbyI9scAErmBb7r6-o0W-23" edge="1">
          <mxGeometry relative="1" as="geometry">
            <mxPoint x="320" y="390" as="sourcePoint" />
            <mxPoint x="260" y="220" as="targetPoint" />
          </mxGeometry>
        </mxCell>
        <mxCell id="TbyI9scAErmBb7r6-o0W-23" value="SI" style="text;html=1;align=center;verticalAlign=middle;resizable=0;points=[];autosize=1;strokeColor=none;fillColor=none;" parent="1" vertex="1">
          <mxGeometry x="305" y="340" width="30" height="30" as="geometry" />
        </mxCell>
        <mxCell id="TbyI9scAErmBb7r6-o0W-26" value="" style="edgeStyle=orthogonalEdgeStyle;rounded=0;orthogonalLoop=1;jettySize=auto;html=1;exitX=0.5;exitY=0;exitDx=0;exitDy=0;entryX=0.5;entryY=1;entryDx=0;entryDy=0;entryPerimeter=0;" parent="1" source="TbyI9scAErmBb7r6-o0W-23" target="TbyI9scAErmBb7r6-o0W-25" edge="1">
          <mxGeometry relative="1" as="geometry">
            <mxPoint x="320" y="340" as="sourcePoint" />
            <mxPoint x="260" y="220" as="targetPoint" />
          </mxGeometry>
        </mxCell>
        <mxCell id="TbyI9scAErmBb7r6-o0W-25" value="cambios para yucatan?" style="rhombus;whiteSpace=wrap;html=1;" parent="1" vertex="1">
          <mxGeometry x="280" y="250" width="80" height="80" as="geometry" />
        </mxCell>
        <mxCell id="TbyI9scAErmBb7r6-o0W-32" value="NOMAMES KBRON" style="shape=document;whiteSpace=wrap;html=1;boundedLbl=1;" parent="1" vertex="1">
          <mxGeometry x="420" y="390" width="120" height="80" as="geometry" />
        </mxCell>
        <mxCell id="TbyI9scAErmBb7r6-o0W-36" value="vas a trabajar con Yucatan?" style="rhombus;whiteSpace=wrap;html=1;" parent="1" vertex="1">
          <mxGeometry x="10" y="70" width="80" height="80" as="geometry" />
        </mxCell>
        <mxCell id="TbyI9scAErmBb7r6-o0W-37" style="edgeStyle=orthogonalEdgeStyle;rounded=0;orthogonalLoop=1;jettySize=auto;html=1;exitX=0;exitY=0.5;exitDx=0;exitDy=0;entryX=0;entryY=0;entryDx=0;entryDy=0;" parent="1" source="TbyI9scAErmBb7r6-o0W-36" target="TbyI9scAErmBb7r6-o0W-19" edge="1">
          <mxGeometry relative="1" as="geometry">
            <Array as="points">
              <mxPoint x="-120" y="110" />
              <mxPoint x="-120" y="280" />
            </Array>
          </mxGeometry>
        </mxCell>
        <mxCell id="1MetSyp41Zf-Jcyhe1Pi-5" value="SI" style="edgeLabel;html=1;align=center;verticalAlign=middle;resizable=0;points=[];" vertex="1" connectable="0" parent="TbyI9scAErmBb7r6-o0W-37">
          <mxGeometry x="-0.6761" y="-2" relative="1" as="geometry">
            <mxPoint as="offset" />
          </mxGeometry>
        </mxCell>
        <mxCell id="TbyI9scAErmBb7r6-o0W-38" value="Bajar cambios" style="rounded=0;whiteSpace=wrap;html=1;" parent="1" vertex="1">
          <mxGeometry x="-170" y="140" width="120" height="60" as="geometry" />
        </mxCell>
        <mxCell id="1MetSyp41Zf-Jcyhe1Pi-3" value="" style="edgeStyle=orthogonalEdgeStyle;rounded=0;orthogonalLoop=1;jettySize=auto;html=1;exitX=0.5;exitY=0;exitDx=0;exitDy=0;exitPerimeter=0;entryX=1;entryY=1;entryDx=0;entryDy=0;" edge="1" parent="1" source="TbyI9scAErmBb7r6-o0W-3" target="1MetSyp41Zf-Jcyhe1Pi-2">
          <mxGeometry relative="1" as="geometry">
            <Array as="points">
              <mxPoint x="390" y="50" />
            </Array>
            <mxPoint x="390" y="140" as="sourcePoint" />
            <mxPoint x="-50" y="150" as="targetPoint" />
          </mxGeometry>
        </mxCell>
        <mxCell id="1MetSyp41Zf-Jcyhe1Pi-4" style="edgeStyle=orthogonalEdgeStyle;rounded=0;orthogonalLoop=1;jettySize=auto;html=1;exitX=0;exitY=0.5;exitDx=0;exitDy=0;entryX=0.5;entryY=0;entryDx=0;entryDy=0;" edge="1" parent="1" source="1MetSyp41Zf-Jcyhe1Pi-2" target="TbyI9scAErmBb7r6-o0W-36">
          <mxGeometry relative="1" as="geometry" />
        </mxCell>
        <mxCell id="1MetSyp41Zf-Jcyhe1Pi-2" value="Crear nueva rama" style="whiteSpace=wrap;html=1;" vertex="1" parent="1">
          <mxGeometry x="170" y="20" width="120" height="60" as="geometry" />
        </mxCell>
        <mxCell id="1MetSyp41Zf-Jcyhe1Pi-6" style="edgeStyle=orthogonalEdgeStyle;rounded=0;orthogonalLoop=1;jettySize=auto;html=1;exitX=0.5;exitY=1;exitDx=0;exitDy=0;entryX=0.383;entryY=-0.02;entryDx=0;entryDy=0;entryPerimeter=0;" edge="1" parent="1" source="TbyI9scAErmBb7r6-o0W-36" target="TbyI9scAErmBb7r6-o0W-19">
          <mxGeometry relative="1" as="geometry">
            <Array as="points">
              <mxPoint x="50" y="190" />
              <mxPoint x="50" y="190" />
            </Array>
          </mxGeometry>
        </mxCell>
        <mxCell id="1MetSyp41Zf-Jcyhe1Pi-7" value="NO" style="edgeLabel;html=1;align=center;verticalAlign=middle;resizable=0;points=[];" vertex="1" connectable="0" parent="1MetSyp41Zf-Jcyhe1Pi-6">
          <mxGeometry x="-0.3815" y="3" relative="1" as="geometry">
            <mxPoint as="offset" />
          </mxGeometry>
        </mxCell>
      </root>
    </mxGraphModel>
  </diagram>
</mxfile>
